<svg width="162" height="160" viewBox="0 0 162 160" fill="none" xmlns="http://www.w3.org/2000/svg">
<path d="M21.0743 108.032C21.0743 108.032 12.7144 83.5753 27.915 69.9173C43.1156 56.2593 61.5466 60.9493 69.7166 70.9382C69.7166 70.9382 92.4585 38.8924 122.919 56.4654C153.815 74.2912 140.208 108.032 140.208 108.032C140.208 108.032 160.918 111.701 159.968 134.725C159.019 157.749 127.288 155.108 127.288 155.108H21.2642C21.2642 155.108 10.0166 154.485 4.28035 143.328C0.478024 135.934 0.777054 126.909 4.82166 119.665C7.63084 114.638 12.5398 109.55 21.0743 108.032Z" stroke="#CC171A" stroke-width="3" stroke-linecap="round" stroke-linejoin="round"/>
<path d="M124.878 91.9977H90.7314V154.572H124.878V91.9977Z" stroke="#CC171A" stroke-width="3" stroke-linecap="round" stroke-linejoin="round"/>
<path d="M48.7809 96.8853L47.8053 154.571" stroke="#CC171A" stroke-width="3" stroke-linecap="round" stroke-linejoin="round"/>
<path d="M90.7317 107.639H71.2195V154.57" stroke="#CC171A" stroke-width="3" stroke-linecap="round" stroke-linejoin="round"/>
<path d="M48.2929 112.527C56.6445 112.527 63.4148 105.742 63.4148 97.3727C63.4148 89.003 56.6445 82.218 48.2929 82.218C39.9412 82.218 33.1709 89.003 33.1709 97.3727C33.1709 105.742 39.9412 112.527 48.2929 112.527Z" stroke="#CC171A" stroke-width="3" stroke-linecap="round" stroke-linejoin="round"/>
<path d="M98.5367 91.994V77.3281H117.073V91.994" stroke="#CC171A" stroke-width="3" stroke-linecap="round" stroke-linejoin="round"/>
<path d="M107.317 77.3296V69.5078" stroke="#CC171A" stroke-width="3" stroke-linecap="round" stroke-linejoin="round"/>
<path d="M107.317 126.217V105.684" stroke="#CC171A" stroke-width="3" stroke-linecap="round" stroke-linejoin="round"/>
<path d="M107.317 139.904V136.971" stroke="#CC171A" stroke-width="3" stroke-linecap="round" stroke-linejoin="round"/>
<path d="M89.7562 28.2664C92.0384 25.7952 94.8026 23.8249 97.8759 22.479C100.949 21.1331 104.265 20.4405 107.617 20.4446C110.823 20.4406 113.999 21.0747 116.961 22.3104C119.924 23.546 122.614 25.359 124.878 27.645" stroke="#CC171A" stroke-width="3" stroke-linecap="round" stroke-linejoin="round"/>
<path d="M79.0243 17.5105C82.7109 13.493 87.1687 10.2915 92.1206 8.10492C97.0725 5.91833 102.413 4.79341 107.809 4.80008C113.204 4.7931 118.542 5.91703 123.492 8.10206C128.442 10.2871 132.899 13.4865 136.585 17.5016" stroke="#CC171A" stroke-width="3" stroke-linecap="round" stroke-linejoin="round"/>
</svg>
