<svg width="164" height="164" viewBox="0 0 164 164" fill="none" xmlns="http://www.w3.org/2000/svg">
<path d="M26.927 55.6316C40.6939 55.6316 51.8541 52.5185 51.8541 48.6783C51.8541 44.8382 40.6939 41.7251 26.927 41.7251C13.1602 41.7251 2 44.8382 2 48.6783C2 52.5185 13.1602 55.6316 26.927 55.6316Z" stroke="#CC171A" stroke-width="3" stroke-linecap="round" stroke-linejoin="round"/>
<path d="M51.8541 65.496C51.8541 69.3359 40.6928 72.4492 26.927 72.4492C13.1612 72.4492 2 69.3359 2 65.496" stroke="#CC171A" stroke-width="3" stroke-linecap="round" stroke-linejoin="round"/>
<path d="M51.8541 82.3184C51.8541 86.1583 40.6928 89.2716 26.927 89.2716C13.1612 89.2716 2 86.1583 2 82.3184" stroke="#CC171A" stroke-width="3" stroke-linecap="round" stroke-linejoin="round"/>
<path d="M51.8541 99.1407C51.8541 102.981 40.6928 106.094 26.927 106.094C13.1612 106.094 2 102.981 2 99.1407" stroke="#CC171A" stroke-width="3" stroke-linecap="round" stroke-linejoin="round"/>
<path d="M2 48.6753V99.1373" stroke="#CC171A" stroke-width="3" stroke-linecap="round" stroke-linejoin="round"/>
<path d="M51.8541 48.6753V99.1373" stroke="#CC171A" stroke-width="3" stroke-linecap="round" stroke-linejoin="round"/>
<path d="M53.4433 73.9096H144.43C146.835 73.9256 149.213 73.4054 151.397 72.3858C153.581 71.3662 155.518 69.872 157.071 68.0091C158.981 65.6822 160.413 62.6859 160.117 59.05C159.322 49.3767 150.383 43.9341 142.24 45.7483C142.24 45.7483 154.952 21.5613 134.294 7.25164C113.637 -7.05798 92.7836 10.4869 92.5849 28.6165C92.5849 28.6165 80.4672 11.888 63.9816 21.7628C47.496 31.6377 58.8191 46.9577 58.8191 46.9577C58.8191 46.9577 55.0447 45.2431 53.4555 46.9577" stroke="#CC171A" stroke-width="3" stroke-linecap="round" stroke-linejoin="round"/>
<path d="M115.413 14.718C115.413 14.718 131.302 10.2833 135.871 28.6245" stroke="#CC171A" stroke-width="3" stroke-linecap="round" stroke-linejoin="round"/>
<path d="M66.4539 39.6098C66.4539 39.6098 66.6525 28.8266 78.471 30.1356" stroke="#CC171A" stroke-width="3" stroke-linecap="round" stroke-linejoin="round"/>
<path d="M28.0187 126.577V155.599H45.8948" stroke="#CC171A" stroke-width="3" stroke-linecap="round" stroke-linejoin="round"/>
<path d="M60.2464 148.241V89.012C60.2464 87.8827 60.6885 86.7996 61.4754 86.0011C62.2623 85.2025 63.3297 84.7539 64.4426 84.7539H152.872C153.985 84.7539 155.052 85.2025 155.839 86.0011C156.626 86.7996 157.068 87.8827 157.068 89.012V148.241" stroke="#CC171A" stroke-width="3" stroke-linecap="round" stroke-linejoin="round"/>
<path d="M54.8828 150.057H100.467V153.541H117.311V150.057H162V151.12C162 154.005 160.87 156.773 158.86 158.813C156.849 160.854 154.121 162 151.278 162H65.6149C62.7714 161.999 60.0445 160.853 58.0339 158.813C56.0232 156.772 54.8933 154.005 54.8926 151.12L54.8828 150.057Z" stroke="#CC171A" stroke-width="3" stroke-linecap="round" stroke-linejoin="round"/>
<path d="M70.2278 116.605H76.3345" stroke="#CC171A" stroke-width="3" stroke-linecap="round" stroke-linejoin="round"/>
<path d="M140.538 116.605H146.647" stroke="#CC171A" stroke-width="3" stroke-linecap="round" stroke-linejoin="round"/>
<path d="M108.735 125.115C113.177 125.115 116.779 121.461 116.779 116.953C116.779 112.444 113.177 108.79 108.735 108.79C104.292 108.79 100.69 112.444 100.69 116.953C100.69 121.461 104.292 125.115 108.735 125.115Z" stroke="#CC171A" stroke-width="3" stroke-linecap="round" stroke-linejoin="round"/>
<path d="M108.735 94.8811H113.576L115.413 101.08L120.578 97.7555L127.729 105.463L124.749 110.301L130.26 112.267V122.545L124.45 123.906L127.58 128.44L120.281 136.302L115.413 133.731L114.172 139.022H108.661" stroke="#CC171A" stroke-width="3" stroke-linecap="round" stroke-linejoin="round"/>
<path d="M108.361 94.8811H103.52L101.683 101.08L96.5183 97.7555L89.3693 105.463L92.3491 110.301L86.8359 112.267V122.545L92.6459 123.906L89.5165 128.44L96.8175 136.302L101.683 133.731L102.924 139.022H108.437" stroke="#CC171A" stroke-width="3" stroke-linecap="round" stroke-linejoin="round"/>
</svg>
